<svg width="76" height="76" viewBox="0 0 76 76" fill="none" xmlns="http://www.w3.org/2000/svg">
<path d="M33.022 43.1748H25.9108V36.0594C25.9108 35.9234 25.884 35.7886 25.8319 35.6629C25.7798 35.5371 25.7035 35.4229 25.6073 35.3267C25.511 35.2304 25.3968 35.1541 25.2711 35.102C25.1453 35.0499 25.0106 35.0231 24.8745 35.0231H18.2542C17.9794 35.0231 17.7158 35.1323 17.5215 35.3267C17.3271 35.521 17.2179 35.7846 17.2179 36.0594V43.1748H10.1026C9.82777 43.1748 9.56417 43.2839 9.36983 43.4783C9.17548 43.6726 9.06629 43.9362 9.06629 44.2111V50.8313C9.06629 51.1062 9.17548 51.3697 9.36983 51.5641C9.56417 51.7584 9.82777 51.8676 10.1026 51.8676H17.2179V58.9788C17.2179 59.2536 17.3271 59.5172 17.5215 59.7116C17.7158 59.9059 17.9794 60.0151 18.2542 60.0151H24.8745C25.0106 60.0151 25.1453 59.9883 25.2711 59.9362C25.3968 59.8841 25.511 59.8078 25.6073 59.7116C25.7035 59.6153 25.7798 59.5011 25.8319 59.3754C25.884 59.2496 25.9108 59.1149 25.9108 58.9788V51.8676H33.022C33.2968 51.8676 33.5604 51.7584 33.7547 51.5641C33.9491 51.3697 34.0583 51.1062 34.0583 50.8313V44.2111C34.0583 43.9362 33.9491 43.6726 33.7547 43.4783C33.5604 43.2839 33.2968 43.1748 33.022 43.1748ZM31.9856 49.7951H24.8745C24.5996 49.7951 24.336 49.9043 24.1417 50.0987C23.9473 50.293 23.8381 50.5566 23.8381 50.8314V57.9426H19.2904V50.8314C19.2904 50.5566 19.1812 50.293 18.9869 50.0987C18.7925 49.9043 18.5289 49.7951 18.2541 49.7951H11.1389V45.2474H18.2542C18.5291 45.2474 18.7927 45.1382 18.987 44.9439C19.1814 44.7495 19.2906 44.4859 19.2906 44.2111V37.0958H23.8383V44.2111C23.8383 44.4859 23.9475 44.7495 24.1418 44.9439C24.3362 45.1382 24.5998 45.2474 24.8746 45.2474H31.9858V49.7951H31.9856ZM67.8395 59.8095H49.0852L52.2871 54.2647C54.4728 50.4739 53.1677 45.6084 49.3781 43.4187L49.3776 43.4185C47.4096 42.2824 45.1518 42.0909 43.1287 42.6986V28.7763C43.1287 28.6201 43.0933 28.4659 43.0254 28.3253C42.9574 28.1847 42.8585 28.0612 42.7361 27.9642L34.4107 21.3656V11.9732C36.2866 11.8497 37.7754 10.2848 37.7754 8.37822V3.59961C37.7754 1.61487 36.1586 0 34.1714 0H8.95707C6.96996 0 5.35316 1.61487 5.35316 3.59961V8.37822C5.35316 10.2835 6.83972 11.8471 8.7136 11.9729V21.3656L0.392359 27.9642C0.270004 28.0612 0.171161 28.1847 0.103218 28.3253C0.0352757 28.4659 -9.54264e-06 28.62 1.93582e-09 28.7762V65.981C1.93582e-09 71.1375 4.19518 75.3327 9.35165 75.3327H33.7731C34.8151 75.3334 35.8497 75.1581 36.8332 74.814C38.7789 74.5549 40.6098 73.5785 41.9118 72.0027C43.347 74.2616 45.849 75.6851 48.6078 75.6851H67.8395C72.2163 75.6851 75.7773 72.1241 75.7773 67.7473C75.7773 63.3705 72.2164 59.8095 67.8395 59.8095ZM45.4229 44.4301C46.416 44.4301 47.4217 44.6825 48.3416 45.2134C51.1423 46.8321 52.1068 50.428 50.4919 53.229L46.2029 60.6561L36.0411 54.7907L40.3298 47.3642C41.4166 45.4832 43.3938 44.4301 45.4229 44.4301ZM38.5351 46.3275L28.9449 62.9351H2.07265V32.1033H41.0562V43.6627C40.0183 44.3407 39.1546 45.2537 38.5351 46.3275ZM32.338 14.9902H10.7864V11.982H32.338V14.9902ZM7.42596 8.37822V3.59961C7.42596 2.75761 8.11285 2.07265 8.95721 2.07265H34.1715C35.0159 2.07265 35.7029 2.75761 35.7029 3.59961V8.37822C35.7029 9.22259 35.0159 9.90947 34.1715 9.90947H8.95707C8.1127 9.90947 7.42596 9.22259 7.42596 8.37822ZM10.3939 22.6784C10.5162 22.5814 10.6151 22.4579 10.683 22.3173C10.751 22.1767 10.7863 22.0226 10.7863 21.8664V17.0628H32.3379V21.8664C32.3379 22.1829 32.4826 22.482 32.7305 22.6785L41.0559 29.2772V30.0306H2.07265V29.277L10.3939 22.6784ZM2.07265 65.981V65.0077H28.0993C27.3355 68.0457 28.4381 71.3228 30.9838 73.26H9.35165C5.33792 73.26 2.07265 69.9946 2.07265 65.981ZM32.8603 72.027C30.0616 70.4112 29.0988 66.8171 30.7141 64.0155L35.0048 56.5854L45.1666 62.4508L40.8762 69.8803C39.2572 72.6824 35.6616 73.6451 32.8603 72.027ZM43.1977 70.005L47.8884 61.8822H57.1875V73.6124H48.6078C46.2303 73.6124 44.1098 72.1803 43.1977 70.005ZM67.8395 73.6124H59.26V61.8822H67.8395C71.0737 61.8822 73.7046 64.5131 73.7046 67.7473C73.7046 70.9815 71.0737 73.6124 67.8395 73.6124ZM10.7864 7.879H8.71375V4.10312H10.7864V7.879ZM15.5147 7.879H13.442V4.10312H15.5147V7.879ZM20.2387 7.879H18.166V4.10312H20.2387V7.879ZM24.9627 7.879H22.89V4.10312H24.9627V7.879ZM29.6867 7.879H27.614V4.10312H29.6867V7.879ZM34.4107 7.879H32.338V4.10312H34.4107V7.879Z" fill="#063E77"/>
</svg>
