<svg width="82" height="82" viewBox="0 0 82 82" fill="none" xmlns="http://www.w3.org/2000/svg">
<path d="M47.2442 4.80404C46.773 4.1088 46.1327 3.54479 45.3836 3.16501C44.6345 2.78523 43.8011 2.60215 42.9618 2.63297C42.1669 1.60454 41.0931 0.826357 39.8683 0.391173C38.6435 -0.0440107 37.3194 -0.11784 36.0538 0.178483C34.7882 0.474807 33.6345 1.12879 32.7302 2.06247C31.8259 2.99616 31.2092 4.17018 30.9535 5.44459C29.6959 6.08803 28.6915 7.13623 28.1024 8.42021C27.5133 9.7042 27.3738 11.1492 27.7063 12.5221C28.0388 13.8951 28.8239 15.1162 29.9352 15.9884C31.0465 16.8606 32.4191 17.3332 33.8317 17.3299H48.1597C49.0251 17.3297 49.8811 17.151 50.6743 16.8051C51.4675 16.4593 52.1809 15.9536 52.7699 15.3197C53.359 14.6858 53.811 13.9373 54.0979 13.1209C54.3847 12.3045 54.5002 11.4377 54.4372 10.5747C54.3741 9.71165 54.1338 8.87089 53.7312 8.10488C53.3287 7.33886 52.7726 6.66404 52.0977 6.12255C51.4227 5.58105 50.6433 5.18449 49.8083 4.95763C48.9732 4.73078 48.1003 4.67849 47.2442 4.80404ZM51.8989 11.0286C51.8975 12.0198 51.5032 12.9701 50.8022 13.671C50.1013 14.372 49.151 14.7664 48.1597 14.7677H33.8317C32.9538 14.7693 32.1034 14.461 31.4304 13.8972C30.7574 13.3334 30.3049 12.5502 30.1526 11.6856C30.0003 10.8209 30.1581 9.93023 30.598 9.17043C31.0379 8.41062 31.7318 7.83041 32.5574 7.53196C32.7863 7.44892 32.9866 7.30223 33.1349 7.10916C33.2832 6.91609 33.3732 6.68467 33.3944 6.44216C33.4647 5.54476 33.82 4.69334 34.4087 4.01232C34.9973 3.33131 35.7883 2.8564 36.6661 2.65699C37.5438 2.45758 38.4624 2.54413 39.2875 2.90399C40.1125 3.26385 40.8009 3.87816 41.252 4.65714C41.3894 4.88919 41.5969 5.07172 41.8445 5.17852C42.0922 5.28532 42.3673 5.31089 42.6304 5.25157C43.1939 5.11023 43.7899 5.18512 44.3008 5.46147C44.8118 5.73782 45.2007 6.19558 45.3908 6.7445C45.5083 7.05375 45.7409 7.3055 46.04 7.4469C46.339 7.58831 46.6812 7.60839 46.9948 7.50292C47.5546 7.30399 48.1542 7.24357 48.7424 7.32682C49.3307 7.41007 49.89 7.63453 50.3726 7.98099C50.8552 8.32746 51.2467 8.78563 51.5137 9.31635C51.7807 9.84707 51.9152 10.4345 51.9057 11.0286H51.8989ZM34.5047 80.7111V62.263C34.5043 61.5437 34.2184 60.854 33.7098 60.3454C33.2011 59.8368 32.5115 59.5509 31.7922 59.5504H30.7878V58.4794C30.7856 57.58 30.5054 56.7034 29.9855 55.9695C29.4657 55.2356 28.7316 54.6803 27.8839 54.3798L21.1811 51.9286V50.4186C21.9763 49.8077 22.6208 49.0225 23.0649 48.1234C23.5091 47.2244 23.7412 46.2354 23.7434 45.2327V43.463C24.6791 42.7666 25.4491 41.8718 25.9981 40.8427C26.6946 39.3744 26.979 37.7444 26.8211 36.127C26.6631 34.5096 26.0687 32.9655 25.1013 31.6597C24.9813 31.5196 24.8325 31.407 24.6651 31.3294C24.4977 31.2519 24.3156 31.2113 24.1311 31.2104C23.9455 31.2068 23.7614 31.2445 23.5922 31.3207C23.4229 31.3969 23.2727 31.5098 23.1523 31.6511C22.9644 31.8646 22.4315 32.2934 22.0591 32.2319C21.6225 32.1332 21.1928 32.006 20.7729 31.851C19.2274 31.2685 17.5869 30.9789 15.9354 30.9969C11.2892 30.9969 8.36313 32.7836 7.69695 36.0291C7.42908 37.412 7.55348 38.8422 8.05609 40.158C8.5587 41.4739 9.41946 42.6228 10.541 43.475V45.2412C10.5444 46.29 10.7987 47.3228 11.2828 48.2533C11.7669 49.1837 12.4667 49.9847 13.3236 50.5894V51.9286L6.64131 54.3713C5.79021 54.6709 5.05293 55.227 4.53103 55.963C4.00914 56.6991 3.7283 57.5788 3.7272 58.4811V59.5521H2.71939C2.36223 59.5515 2.00844 59.6213 1.67832 59.7576C1.3482 59.8939 1.04822 60.094 0.795591 60.3465C0.542961 60.599 0.342643 60.8988 0.206119 61.2289C0.0695961 61.5589 -0.000448022 61.9126 2.15627e-06 62.2698V80.7179C0.00180798 81.0565 0.137579 81.3806 0.37764 81.6194C0.6177 81.8581 0.942526 81.9922 1.28112 81.9922H33.2236C33.5634 81.9922 33.8893 81.8572 34.1295 81.6169C34.3698 81.3767 34.5047 81.0508 34.5047 80.7111ZM12.5823 39.6607C12.3542 40.1742 12.0677 40.6597 11.7282 41.1075C11.103 40.5421 10.6343 39.8249 10.3674 39.0253C10.1005 38.2258 10.0444 37.3709 10.2045 36.5433C10.6128 34.5584 12.5396 33.5557 15.9337 33.5557C17.3023 33.5391 18.6616 33.7825 19.9393 34.2731C20.4671 34.467 21.0076 34.6245 21.5569 34.7446C22.3089 34.8867 23.087 34.7584 23.7536 34.3825C24.1148 35.2499 24.2911 36.1832 24.2711 37.1226C24.2511 38.0621 24.0353 38.987 23.6375 39.8383C23.5273 40.065 23.3839 40.274 23.2121 40.4584C22.7321 39.1995 22.1599 38.9552 21.9259 38.8544C21.6639 38.741 21.3766 38.6985 21.093 38.7312C20.8094 38.7639 20.5393 38.8706 20.31 39.0406C19.8783 39.4398 19.3563 39.7285 18.7888 39.882C18.2212 40.0355 17.6249 40.0492 17.0508 39.922C16.1468 39.8048 15.2756 39.5074 14.4886 39.0474C14.3277 38.9404 14.1447 38.871 13.9533 38.8443C13.7619 38.8176 13.5669 38.8343 13.3828 38.8932C13.1988 38.9521 13.0303 39.0516 12.8899 39.1845C12.7496 39.3174 12.6409 39.4801 12.572 39.6607H12.5823ZM13.1033 45.2378V43.4306C13.2844 43.2614 13.4518 43.0781 13.6038 42.8822C13.8657 42.5422 14.1097 42.1887 14.3348 41.8232C15.0934 42.1346 15.8883 42.3487 16.7006 42.4603C18.1516 42.7553 19.6604 42.4879 20.9215 41.7122C21.0357 42.1156 21.1247 42.5258 21.188 42.9403V45.2378C21.1662 46.2955 20.7308 47.3026 19.9751 48.0429C19.2193 48.7832 18.2035 49.1979 17.1456 49.1979C16.0877 49.1979 15.0719 48.7832 14.3162 48.0429C13.5604 47.3026 13.125 46.2955 13.1033 45.2378ZM18.6189 51.657V52.8288C18.6189 53.1924 18.4745 53.5411 18.2174 53.7981C17.9603 54.0552 17.6117 54.1996 17.2481 54.1996C16.8845 54.1996 16.5359 54.0552 16.2788 53.7981C16.0217 53.5411 15.8773 53.1924 15.8773 52.8288V51.7032C16.7833 51.8906 17.7197 51.8749 18.6189 51.657ZM6.28089 58.4897C6.28297 58.1151 6.40125 57.7505 6.61941 57.4461C6.83756 57.1416 7.14483 56.9124 7.4988 56.79L13.7097 54.5199C14.0259 55.191 14.5265 55.7584 15.1531 56.1557C15.7796 56.5531 16.5062 56.7641 17.2481 56.7641C17.99 56.7641 18.7166 56.5531 19.3431 56.1557C19.9697 55.7584 20.4703 55.191 20.7865 54.5199L27.0128 56.7952C27.3621 56.9205 27.6642 57.1504 27.8782 57.4536C28.0921 57.7568 28.2075 58.1186 28.2085 58.4897V59.5607H6.28089V58.4897ZM31.9425 79.4299H2.56224V62.2698C2.56201 62.2501 2.56569 62.2306 2.57305 62.2124C2.58042 62.1942 2.59133 62.1776 2.60515 62.1636C2.61898 62.1496 2.63543 62.1385 2.65358 62.131C2.67172 62.1234 2.69118 62.1195 2.71084 62.1195H31.7837C31.8035 62.1193 31.8231 62.123 31.8414 62.1305C31.8598 62.1379 31.8764 62.149 31.8904 62.163C31.9045 62.177 31.9155 62.1937 31.923 62.212C31.9305 62.2304 31.9342 62.25 31.934 62.2698L31.9425 79.4299ZM79.2806 59.5573H78.2728V58.4862C78.2708 57.5868 77.9907 56.71 77.4708 55.9761C76.9509 55.2421 76.2168 54.6869 75.3689 54.3867L68.6764 51.9286V50.4186C69.4713 49.8074 70.1155 49.0221 70.5597 48.1232C71.0038 47.2242 71.2361 46.2354 71.2386 45.2327V43.463C72.1718 42.7663 72.9389 41.8714 73.4848 40.8427C74.1813 39.3745 74.466 37.7447 74.3083 36.1273C74.1507 34.5099 73.5567 32.9657 72.5898 31.6597C72.4695 31.5198 72.3207 31.4074 72.1533 31.3299C71.986 31.2524 71.804 31.2117 71.6195 31.2104C71.4328 31.2 71.2462 31.2346 71.0756 31.3113C70.905 31.388 70.7553 31.5045 70.6391 31.6511C70.4529 31.8646 69.9182 32.2934 69.5475 32.2319C69.1109 32.1332 68.6812 32.006 68.2613 31.851C66.7158 31.2685 65.0753 30.9789 63.4238 30.9969C58.7776 30.9969 55.8516 32.7836 55.1854 36.0291C54.9167 37.412 55.0407 38.8425 55.5434 40.1585C56.0461 41.4745 56.9073 42.6234 58.0295 43.475V45.2412C58.0322 46.29 58.2861 47.3228 58.7699 48.2533C59.2537 49.1838 59.9534 49.9848 60.8103 50.5894V51.9286L54.1263 54.3713C53.2755 54.6713 52.5385 55.2275 52.0167 55.9635C51.4948 56.6994 51.2138 57.5789 51.2122 58.4811V59.5521H50.2078C49.4885 59.5526 48.7989 59.8385 48.2903 60.3471C47.7816 60.8557 47.4957 61.5454 47.4953 62.2647V80.7128C47.4953 81.0525 47.6302 81.3784 47.8705 81.6186C48.1107 81.8589 48.4366 81.9939 48.7764 81.9939H80.7189C81.0587 81.9939 81.3845 81.8589 81.6248 81.6186C81.865 81.3784 82 81.0525 82 80.7128V62.2647C81.9982 61.5451 81.7107 60.8557 81.2008 60.348C80.6909 59.8403 80.0002 59.5559 79.2806 59.5573ZM60.0758 39.6624C59.8493 40.1767 59.5626 40.6623 59.2217 41.1092C58.5968 40.5432 58.1282 39.8257 57.861 39.026C57.5938 38.2263 57.5371 37.3713 57.6964 36.5433C58.1063 34.5584 60.0314 33.5557 63.4272 33.5557C64.7958 33.5388 66.1552 33.7823 67.4329 34.2731C67.9607 34.467 68.5011 34.6245 69.0505 34.7446C69.8025 34.8867 70.5805 34.7584 71.2472 34.3825C71.6084 35.2499 71.7846 36.1832 71.7646 37.1226C71.7446 38.0621 71.5288 38.987 71.131 39.8383C71.0208 40.065 70.8775 40.274 70.7057 40.4584C70.224 39.1995 69.6517 38.9552 69.4194 38.8544C69.1571 38.741 68.8696 38.6986 68.5857 38.7312C68.3018 38.7639 68.0315 38.8706 67.8018 39.0406C67.3716 39.4415 66.85 39.7314 66.2823 39.885C65.7146 40.0386 65.1181 40.0513 64.5444 39.922C63.643 39.8041 62.7745 39.5061 61.9907 39.0457C61.8302 38.9379 61.6472 38.8681 61.4557 38.8418C61.2641 38.8154 61.0691 38.8332 60.8855 38.8937C60.7015 38.9529 60.5332 39.0527 60.393 39.1857C60.2529 39.3188 60.1445 39.4817 60.0758 39.6624ZM60.5985 45.2378V43.4323C60.7801 43.2629 60.9475 43.079 61.099 42.8822C61.3608 42.5425 61.6043 42.1889 61.8284 41.8232C62.5876 42.1344 63.3831 42.3485 64.1959 42.4603C65.6468 42.7548 67.1554 42.4874 68.4167 41.7122C68.5301 42.1158 68.6191 42.526 68.6832 42.9403V45.2378C68.6615 46.2955 68.226 47.3026 67.4703 48.0429C66.7146 48.7832 65.6988 49.1979 64.6409 49.1979C63.5829 49.1979 62.5672 48.7832 61.8114 48.0429C61.0557 47.3026 60.6203 46.2955 60.5985 45.2378ZM66.1142 51.657V52.8288C66.1142 53.1913 65.9702 53.5388 65.7139 53.7951C65.4576 54.0514 65.1101 54.1954 64.7476 54.1954C64.3852 54.1954 64.0376 54.0514 63.7813 53.7951C63.5251 53.5388 63.3811 53.1913 63.3811 52.8288V51.7032C64.2844 51.8893 65.2177 51.8736 66.1142 51.657ZM53.7744 58.4897C53.7768 58.1152 53.8952 57.7507 54.1133 57.4463C54.3314 57.1419 54.6385 56.9126 54.9924 56.79L61.2049 54.5199C61.5212 55.191 62.0218 55.7584 62.6483 56.1557C63.2748 56.5531 64.0014 56.7641 64.7434 56.7641C65.4853 56.7641 66.2119 56.5531 66.8384 56.1557C67.4649 55.7584 67.9655 55.191 68.2818 54.5199L74.508 56.7952C74.8574 56.9203 75.1598 57.1501 75.3737 57.4534C75.5877 57.7566 75.703 58.1185 75.7037 58.4897V59.5607H53.7744V58.4897ZM79.4292 79.4299H50.0575V62.2698C50.0573 62.25 50.061 62.2304 50.0685 62.212C50.0759 62.1937 50.087 62.177 50.101 62.163C50.115 62.149 50.1317 62.1379 50.15 62.1305C50.1684 62.123 50.188 62.1193 50.2078 62.1195H79.2806C79.3003 62.1195 79.3197 62.1234 79.3379 62.131C79.356 62.1385 79.3725 62.1496 79.3863 62.1636C79.4001 62.1776 79.411 62.1942 79.4184 62.2124C79.4258 62.2306 79.4295 62.2501 79.4292 62.2698V79.4299Z" fill="#063E77"/>
</svg>
