<svg width="63" height="78" viewBox="0 0 63 78" fill="none" xmlns="http://www.w3.org/2000/svg">
<path d="M37.572 35.2176C36.7341 35.2176 36.054 35.8977 36.054 36.7356C36.054 37.5736 36.7341 38.2537 37.572 38.2537C38.4099 38.2537 39.09 37.5736 39.09 36.7356C39.09 35.8977 38.4099 35.2176 37.572 35.2176ZM31.5 26.1096C30.662 26.1096 29.982 26.7897 29.982 27.6276C29.982 28.4656 30.662 29.1456 31.5 29.1456C32.3379 29.1456 33.018 28.4656 33.018 27.6276C33.018 26.7897 32.3379 26.1096 31.5 26.1096ZM13.2839 65.5777C12.446 65.5777 11.7659 66.2578 11.7659 67.0957C11.7659 67.9337 12.446 68.6137 13.2839 68.6137C14.1219 68.6137 14.8019 67.9337 14.8019 67.0957C14.8019 66.2578 14.1219 65.5777 13.2839 65.5777Z" fill="#063E77"/>
<path d="M61.6196 61.8857L42.126 27.2301V8.84784C43.8931 8.22136 45.162 6.53319 45.162 4.55401C45.162 2.04293 43.1191 0 40.608 0H22.392C19.8809 0 17.838 2.04293 17.838 4.55401C17.838 6.53319 19.1069 8.22136 20.874 8.84784V27.2301L1.38037 61.8857C-0.49103 65.2126 -0.457786 69.1659 1.46902 72.4606C3.39567 75.7549 6.82454 77.7218 10.6411 77.7218H52.3589C56.1755 77.7218 59.6042 75.7549 61.531 72.4606C63.4578 69.1659 63.491 65.2126 61.6196 61.8857ZM23.7151 28.3718C23.8429 28.1446 23.91 27.8883 23.91 27.6277V9.10803H25.428C26.2662 9.10803 26.946 8.42826 26.946 7.59002C26.946 6.75178 26.2662 6.07202 25.428 6.07202H22.392C21.5549 6.07202 20.874 5.39104 20.874 4.55401C20.874 3.71699 21.5549 3.03601 22.392 3.03601H40.608C41.4451 3.03601 42.126 3.71699 42.126 4.55401C42.126 5.39104 41.4451 6.07202 40.608 6.07202H37.572C36.7338 6.07202 36.054 6.75178 36.054 7.59002C36.054 8.42826 36.7338 9.10803 37.572 9.10803H39.09V27.6277C39.09 27.8885 39.1571 28.1446 39.2849 28.3718L48.2322 44.2785C42.7682 43.836 37.3231 44.9411 32.3203 47.5316C25.8892 50.8597 18.7298 51.4456 11.9791 49.2359L23.7151 28.3718ZM58.9101 70.9278C57.5341 73.2809 55.0849 74.6858 52.3589 74.6858H10.6411C7.91507 74.6858 5.46592 73.2809 4.08985 70.9278C2.71348 68.5745 2.68964 65.7505 4.02655 63.3739L10.4641 51.9294C13.5876 53.0201 16.8154 53.5707 20.0939 53.5707C20.5792 53.5707 21.0657 53.5587 21.5531 53.5345C25.7891 53.3248 29.8812 52.2122 33.716 50.2277C38.8456 47.5718 44.4876 46.6549 50.0775 47.5589L58.9736 63.3739C60.3104 65.7505 60.2867 68.5745 58.9101 70.9278Z" fill="#063E77"/>
<path d="M25.428 35.2178C22.9169 35.2178 20.874 37.2607 20.874 39.7718C20.874 42.2829 22.9169 44.3258 25.428 44.3258C27.9391 44.3258 29.982 42.2829 29.982 39.7718C29.982 37.2607 27.9391 35.2178 25.428 35.2178ZM25.428 41.2898C24.5909 41.2898 23.91 40.6088 23.91 39.7718C23.91 38.9348 24.5909 38.2538 25.428 38.2538C26.265 38.2538 26.946 38.9348 26.946 39.7718C26.946 40.6088 26.265 41.2898 25.428 41.2898ZM49.716 65.5779H19.356C18.5177 65.5779 17.838 66.2576 17.838 67.0959C17.838 67.9341 18.5177 68.6139 19.356 68.6139H49.716C50.5543 68.6139 51.234 67.9341 51.234 67.0959C51.234 66.2576 50.5543 65.5779 49.716 65.5779Z" fill="#063E77"/>
</svg>
