<svg width="69" height="70" viewBox="0 0 69 70" fill="none" xmlns="http://www.w3.org/2000/svg">
<path d="M68.2019 31.9352C68.1986 29.0704 67.1674 26.3019 65.2958 24.133C63.4241 21.9641 60.8363 20.5389 58.0028 20.1165V1.46645C57.9992 1.26413 57.954 1.06473 57.87 0.880629C57.7861 0.69653 57.6651 0.531673 57.5147 0.39631C57.3643 0.260946 57.1877 0.157969 56.9958 0.0937807C56.8039 0.0295925 56.6008 0.00556548 56.3992 0.0231935C56.0286 0.0242224 55.6726 0.16777 55.405 0.424098C52.0093 3.68466 47.4841 5.50549 42.7765 5.50549C38.0689 5.50549 33.5437 3.68466 30.148 0.424098C29.8271 0.153834 29.421 0.0056236 29.0014 0.0056236C28.5819 0.0056236 28.1758 0.153834 27.8548 0.424098C24.4576 3.69414 19.9256 5.5209 15.2103 5.5209C10.495 5.5209 5.96302 3.69414 2.56579 0.424098C2.3078 0.170705 1.96492 0.0221235 1.60362 0.00715734C1.40155 -0.0129295 1.19752 0.00937656 1.00456 0.072649C0.81161 0.135921 0.633985 0.238767 0.48305 0.374609C0.332115 0.510451 0.211192 0.676298 0.128014 0.861543C0.0448364 1.04679 0.00123552 1.24735 0 1.45041L0 40.0976C0 56.1338 27.2615 68.4496 28.4161 68.9627C29.715 69.8928 53.8495 57.6412 57.4897 43.8821C60.4368 43.5687 63.1631 42.1739 65.1417 39.9673C67.1202 37.7607 68.2105 34.8989 68.2019 31.9352ZM41.9667 58.3307C37.8722 61.261 33.5315 63.8311 28.9934 66.0121C18.8425 61.3936 2.38939 50.008 2.88651 40.0976V4.46521C6.74134 7.22 11.4089 8.60187 16.1422 8.38963C20.8754 8.17739 25.4006 6.38331 28.9934 3.29457C32.5887 6.38461 37.1167 8.17933 41.8527 8.39157C46.5887 8.6038 51.259 7.22128 55.1163 4.46521V20.0363C41.1168 21.64 40.6838 41.4286 54.4909 43.7699C52.6468 49.5429 46.9219 54.7386 41.9667 58.3307ZM56.2389 41.0117C53.8329 41.0074 51.5268 40.0498 49.8255 38.3485C48.1243 36.6473 47.1666 34.3411 47.1624 31.9352C47.5954 19.9401 64.8824 19.9401 65.3153 31.9352C65.3111 34.3411 64.3535 36.6473 62.6522 38.3485C60.951 40.0498 58.6448 41.0074 56.2389 41.0117Z" fill="#063E77"/>
<path d="M62.3486 28.3753C62.0754 28.105 61.7066 27.9534 61.3223 27.9534C60.938 27.9534 60.5692 28.105 60.296 28.3753L56.2228 32.4485L54.6192 30.8448C54.3436 30.6036 53.9867 30.4761 53.6206 30.4882C53.2546 30.5004 52.9069 30.6512 52.6479 30.9102C52.3889 31.1691 52.2381 31.5169 52.226 31.8829C52.2138 32.2489 52.3413 32.6059 52.5826 32.8814L55.2285 35.5274C55.499 35.7967 55.8652 35.9479 56.2468 35.9479C56.6285 35.9479 56.9946 35.7967 57.2651 35.5274L62.3486 30.476C62.4918 30.3411 62.6059 30.1783 62.6838 29.9977C62.7618 29.817 62.8021 29.6224 62.8021 29.4256C62.8021 29.2289 62.7618 29.0342 62.6838 28.8536C62.6059 28.673 62.4918 28.5102 62.3486 28.3753ZM28.9933 31.8391C30.9007 31.7504 32.7006 30.9302 34.0191 29.549C35.3375 28.1678 36.0731 26.3318 36.0731 24.4223C36.0731 22.5129 35.3375 20.6769 34.0191 19.2957C32.7006 17.9145 30.9007 17.0943 28.9933 17.0056C19.2434 17.3263 19.2434 31.5344 28.9933 31.8391ZM28.9933 19.8921C30.1482 19.9609 31.2333 20.4681 32.0267 21.3101C32.8201 22.1522 33.2619 23.2654 33.2619 24.4223C33.2619 25.5793 32.8201 26.6925 32.0267 27.5346C31.2333 28.3766 30.1482 28.8838 28.9933 28.9526C27.8385 28.8838 26.7534 28.3766 25.96 27.5346C25.1666 26.6925 24.7248 25.5793 24.7248 24.4223C24.7248 23.2654 25.1666 22.1522 25.96 21.3101C26.7534 20.4681 27.8385 19.9609 28.9933 19.8921ZM33.2269 33.122C32.991 33.0569 32.7426 33.0521 32.5044 33.1082C32.2662 33.1642 32.0459 33.2792 31.8638 33.4427C31.0769 34.1538 30.054 34.5474 28.9933 34.5474C27.9327 34.5474 26.9098 34.1538 26.1229 33.4427C25.9408 33.2792 25.7205 33.1642 25.4823 33.1082C25.2441 33.0521 24.9957 33.0569 24.7598 33.122C14.7372 35.7359 14.2401 51.5636 25.5937 52.0607H32.4091C43.7466 51.5636 43.2976 35.7359 33.2269 33.122ZM37.8614 44.6359C37.6225 45.9086 36.9474 47.0581 35.9521 47.8865C34.9569 48.7149 33.7039 49.1703 32.4091 49.1742H25.6578C18.0727 48.8695 18.6981 38.1894 24.9362 36.1207C26.1474 36.9658 27.5887 37.419 29.0655 37.419C30.5424 37.419 31.9837 36.9658 33.1948 36.1207C34.8419 36.7755 36.209 37.9841 37.0608 39.5384C37.9126 41.0927 38.1957 42.8954 37.8614 44.6359Z" fill="#063E77"/>
</svg>
