<svg width="30" height="30" viewBox="0 0 30 30" fill="none" xmlns="http://www.w3.org/2000/svg">
<path d="M0.299805 5.11987H29.7V24.8805H0.299805V5.11987Z" fill="#D6D4D1"/>
<path d="M0.546875 18.1305H29.4665V24.6371H0.546875V18.1305Z" fill="#11892E"/>
<path d="M0.546875 5.35681H29.4665V11.864H0.546875V5.35681Z" fill="#F2963B"/>
<path d="M0.544922 11.8657H29.4664V18.1314H0.544922V11.8657Z" fill="white"/>
<path d="M17.6335 14.6527C17.4425 13.2015 16.1108 12.1795 14.6595 12.3705C13.2066 12.5623 12.1855 13.8931 12.3765 15.3444C12.5675 16.7956 13.8991 17.8168 15.3519 17.6266C16.8031 17.4347 17.8244 16.104 17.6335 14.6527ZM17.3196 15.17C17.2482 15.1625 17.1818 15.2123 17.1734 15.2837C17.1684 15.3178 17.1771 15.3526 17.1977 15.3803C17.2183 15.408 17.249 15.4264 17.2831 15.4315C17.2724 15.4855 17.2602 15.5392 17.2465 15.5925L16.0343 15.1957L15.4599 15.0835C15.4629 15.0669 15.4665 15.0503 15.4681 15.0336L16.0491 15.0743L17.3244 15.0054C17.3247 15.0604 17.3213 15.1151 17.3196 15.17ZM12.6921 14.827C12.7264 14.8306 12.7607 14.8207 12.7879 14.7996C12.8152 14.7784 12.8331 14.7475 12.8381 14.7134C12.8482 14.6419 12.7983 14.5772 12.7269 14.5648C12.7368 14.5116 12.7502 14.4577 12.7634 14.4045L13.9755 14.8014L14.5517 14.9135C14.548 14.9299 14.5452 14.9466 14.5434 14.9633L13.9605 14.9227L12.687 14.9916C12.687 14.9367 12.6886 14.8819 12.6921 14.827ZM12.7269 15.4315C12.7612 15.4265 12.7921 15.4081 12.8129 15.3805C12.8337 15.3528 12.8428 15.318 12.8381 15.2837C12.8333 15.2495 12.8154 15.2185 12.7882 15.1973C12.7609 15.176 12.7264 15.1663 12.6921 15.17C12.6887 15.1153 12.687 15.0605 12.687 15.0057L13.9605 15.0746L14.545 15.0339C14.5467 15.0423 14.545 15.0506 14.5467 15.0597C14.5467 15.068 14.55 15.0753 14.5517 15.0838L13.9755 15.196L12.7634 15.5929C12.7503 15.5393 12.7381 15.4855 12.7269 15.4315ZM16.0494 14.9227L15.4665 14.9633C15.4648 14.9551 15.4665 14.9467 15.4648 14.9376C15.4648 14.9294 15.4616 14.921 15.4599 14.9135L16.0343 14.8014L17.2465 14.4045C17.2597 14.4577 17.2729 14.5116 17.2831 14.5656C17.249 14.5708 17.2184 14.5892 17.1978 14.6169C17.1773 14.6446 17.1685 14.6793 17.1734 14.7134C17.1818 14.784 17.2465 14.8345 17.3179 14.827C17.3211 14.8819 17.3246 14.9374 17.3246 14.9915L16.0494 14.9227ZM17.1951 14.2345C17.2118 14.2859 17.23 14.3382 17.2451 14.3913L15.9948 14.6545L15.4435 14.8446C15.4368 14.8288 15.4285 14.8139 15.4221 14.7981L15.9485 14.5416L17.0164 13.845C17.0445 13.8923 17.0695 13.9405 17.0942 13.9903C17.0628 14.0045 17.0381 14.0304 17.0253 14.0625C17.0126 14.0945 17.0128 14.1302 17.0258 14.1622C17.0522 14.2278 17.1287 14.2601 17.1951 14.2345ZM16.7402 13.6681C16.7611 13.6951 16.7916 13.7129 16.8253 13.7178C16.859 13.7228 16.8934 13.7145 16.9211 13.6947C16.9543 13.7396 16.9825 13.786 17.0092 13.8333L15.8718 14.4104L15.3869 14.7375C15.3768 14.7242 15.3686 14.7092 15.3571 14.6967L15.7971 14.3132L16.6488 13.3634C16.6869 13.4025 16.7254 13.4423 16.7617 13.4847C16.7349 13.5064 16.7176 13.5378 16.7136 13.572C16.7096 13.6063 16.7191 13.6408 16.7402 13.6681ZM16.3366 13.2637C16.3639 13.2846 16.3982 13.2941 16.4324 13.29C16.4665 13.286 16.4977 13.2688 16.5194 13.2422C16.5611 13.2778 16.601 13.3152 16.6407 13.3542L15.6909 14.2061L15.3055 14.6477C15.2922 14.637 15.2808 14.6262 15.2656 14.6171L15.5943 14.1314L16.1704 12.994C16.2168 13.0214 16.2633 13.0513 16.3096 13.082C16.2687 13.1401 16.2785 13.2207 16.3366 13.2637ZM15.8418 12.9782C15.8736 12.9912 15.9092 12.9914 15.9411 12.9787C15.9729 12.966 15.9987 12.9415 16.0127 12.9101C16.0626 12.9342 16.1122 12.9599 16.1589 12.9873L15.4616 14.0558L15.2059 14.5805C15.1907 14.573 15.1742 14.5681 15.1577 14.5623L15.3501 14.0086L15.611 12.7608C15.6641 12.7749 15.7173 12.7915 15.7704 12.8098C15.7439 12.8762 15.7755 12.9508 15.8418 12.9782ZM15.1759 12.686C15.1692 12.7566 15.2191 12.8212 15.2905 12.8305C15.362 12.8397 15.4266 12.7914 15.4383 12.7201C15.4933 12.7309 15.5463 12.7434 15.5993 12.7574L15.2025 13.9696L15.0911 14.5449C15.0727 14.5416 15.058 14.5375 15.0397 14.5358L15.0813 13.9529L15.0118 12.6793C15.0664 12.6793 15.1228 12.682 15.1759 12.686ZM14.7193 12.8305C14.7536 12.826 14.7848 12.8085 14.8065 12.7816C14.8282 12.7547 14.8386 12.7204 14.8357 12.686C14.8898 12.6821 14.9441 12.6799 14.9984 12.6793L14.9303 13.9529L14.9701 14.5374C14.9618 14.5382 14.9536 14.5374 14.9452 14.5382C14.9369 14.5391 14.927 14.5432 14.9186 14.5449L14.8074 13.9696L14.4105 12.7566C14.4639 12.7431 14.5176 12.7309 14.5716 12.7201C14.5832 12.7914 14.648 12.8396 14.7193 12.8305ZM14.1682 12.9782C14.2362 12.9508 14.2662 12.8752 14.2412 12.808C14.2932 12.7905 14.3458 12.7747 14.3989 12.7607L14.6612 14.0085L14.8506 14.5606C14.8354 14.5675 14.8205 14.5747 14.8057 14.5822L14.5483 14.0559L13.8526 12.9866C13.899 12.96 13.9473 12.9342 13.997 12.9101C14.027 12.9749 14.1017 13.0056 14.1682 12.9782ZM13.675 13.2637C13.7023 13.2427 13.7202 13.2117 13.7249 13.1775C13.7295 13.1433 13.7205 13.1087 13.6998 13.0811C13.7463 13.0503 13.7912 13.0213 13.841 12.9939L14.4155 14.1313L14.7442 14.6169C14.731 14.626 14.716 14.6361 14.7027 14.6468L14.3192 14.206L13.3693 13.3541C13.4109 13.3151 13.449 13.2777 13.4922 13.242C13.5138 13.2688 13.545 13.2861 13.5792 13.2901C13.6133 13.2942 13.6477 13.2847 13.675 13.2637ZM13.2714 13.6681C13.2921 13.6407 13.3014 13.6063 13.2974 13.5721C13.2934 13.5379 13.2763 13.5066 13.2498 13.4847C13.2831 13.4432 13.3228 13.4033 13.3612 13.3634L14.2129 14.3132L14.6547 14.6976C14.6447 14.7101 14.6331 14.7242 14.6231 14.7375L14.1383 14.4104L13.0009 13.8333C13.0275 13.786 13.0573 13.7387 13.0888 13.6939C13.1453 13.7353 13.2283 13.7245 13.2714 13.6681ZM12.9842 14.1621C12.9978 14.1302 12.9983 14.0943 12.9855 14.0621C12.9727 14.0299 12.9478 14.0041 12.916 13.9902C12.9409 13.9412 12.9659 13.8922 12.994 13.8449L14.0617 14.5415L14.5881 14.798C14.5812 14.8135 14.5751 14.8292 14.5699 14.8453L14.0153 14.6544L12.7667 14.392C12.7816 14.3381 12.7982 14.2866 12.8147 14.2344C12.8468 14.2467 12.8825 14.2461 12.9141 14.2326C12.9458 14.2191 12.9709 14.1938 12.9842 14.1621ZM12.8148 15.7627C12.7979 15.7105 12.7818 15.6579 12.7668 15.605L14.0154 15.3419L14.5683 15.1526C14.5734 15.1682 14.5816 15.1834 14.5882 15.1983L14.0618 15.4558L12.9941 16.1522C12.9662 16.1048 12.9402 16.0563 12.9161 16.0069C12.9826 15.9779 13.0124 15.9015 12.9843 15.8351C12.9713 15.8031 12.9462 15.7775 12.9145 15.764C12.8827 15.7504 12.8469 15.75 12.8148 15.7627ZM13.2714 16.329C13.2502 16.302 13.2193 16.2842 13.1853 16.2794C13.1512 16.2746 13.1166 16.2832 13.0887 16.3033C13.0572 16.2575 13.0274 16.2111 13.0008 16.1638L14.1382 15.5868L14.623 15.2588C14.633 15.273 14.6429 15.2871 14.6546 15.3004L14.2128 15.684L13.3611 16.6329C13.3224 16.5942 13.2852 16.554 13.2497 16.5125C13.2763 16.4906 13.2934 16.4593 13.2975 16.4251C13.3015 16.3909 13.2922 16.3565 13.2714 16.329ZM13.675 16.7332C13.6477 16.7123 13.6134 16.7028 13.5792 16.7068C13.5451 16.7109 13.5139 16.7281 13.4923 16.7548C13.4504 16.7184 13.4095 16.6811 13.3694 16.6427L14.3193 15.791L14.7045 15.3484C14.7178 15.3599 14.7311 15.3707 14.7443 15.3791L14.4156 15.8647L13.8411 17.0029C13.7931 16.9752 13.746 16.9458 13.6999 16.9148C13.7206 16.8874 13.7295 16.8529 13.7248 16.8189C13.7202 16.7849 13.7022 16.7541 13.675 16.7332ZM14.1682 17.0179C14.1363 17.0051 14.1007 17.005 14.0688 17.0179C14.0369 17.0307 14.0112 17.0554 13.9971 17.0867C13.9481 17.0626 13.8999 17.0369 13.8527 17.0096L14.5484 15.9411L14.8058 15.4155C14.8207 15.423 14.8373 15.4287 14.8523 15.4338L14.6612 15.9883L14.3989 17.236C14.3457 17.2219 14.2931 17.2059 14.2412 17.1879C14.2533 17.1556 14.2525 17.1199 14.2389 17.0882C14.2252 17.0565 14.1999 17.0313 14.1682 17.0179ZM14.8357 17.3111C14.8386 17.2767 14.8282 17.2424 14.8065 17.2155C14.7848 17.1886 14.7536 17.1711 14.7193 17.1666C14.6853 17.1621 14.6508 17.171 14.6232 17.1915C14.5956 17.2119 14.5771 17.2424 14.5716 17.2763C14.5174 17.2663 14.4637 17.2541 14.4105 17.2398L14.8074 16.0276L14.9186 15.4523C14.9369 15.4555 14.9536 15.4596 14.9701 15.4614L14.9303 16.0434L14.9984 17.3179C14.9441 17.3181 14.8898 17.3158 14.8357 17.3111ZM15.2905 17.1666C15.2564 17.171 15.2253 17.1886 15.2039 17.2156C15.1825 17.2426 15.1725 17.2768 15.1759 17.3111C15.1212 17.3147 15.0664 17.3167 15.0116 17.317L15.0812 16.0434L15.0395 15.459C15.0477 15.4581 15.058 15.4598 15.0644 15.4581C15.0724 15.4573 15.0827 15.454 15.0909 15.4523L15.2023 16.0276L15.599 17.2398C15.5459 17.2538 15.4928 17.2663 15.4381 17.2763C15.4327 17.2423 15.4142 17.2119 15.3866 17.1914C15.3591 17.1709 15.3246 17.162 15.2905 17.1666ZM15.8418 17.0179C15.81 17.0312 15.7846 17.0565 15.7713 17.0883C15.7579 17.1201 15.7576 17.1559 15.7704 17.188C15.7173 17.2062 15.6641 17.222 15.611 17.2362L15.3501 15.9884L15.1593 15.4363C15.1742 15.4297 15.1889 15.4222 15.2057 15.414L15.4613 15.9411L16.1587 17.0096C16.1123 17.037 16.0624 17.0627 16.0125 17.0867C15.9985 17.0554 15.9729 17.0307 15.941 17.0179C15.9092 17.0051 15.8737 17.0051 15.8418 17.0179ZM16.3366 16.7332C16.2785 16.7764 16.2686 16.8577 16.31 16.916C16.2637 16.9458 16.2188 16.9757 16.1707 17.0031L15.5947 15.865L15.2662 15.3793C15.2811 15.3712 15.295 15.3615 15.3078 15.3504L15.6913 15.7912L16.6411 16.6429C16.6013 16.682 16.5614 16.7194 16.5198 16.755C16.4744 16.7 16.393 16.6892 16.3366 16.7332ZM16.7402 16.329C16.7195 16.3564 16.7102 16.3907 16.7142 16.4247C16.7182 16.4588 16.7353 16.4899 16.7617 16.5117C16.7269 16.554 16.6869 16.5939 16.6488 16.633L15.7971 15.6841L15.3553 15.2997C15.3654 15.2865 15.3768 15.2731 15.3869 15.2589L15.8718 15.5869L17.0092 16.1631C16.9825 16.2112 16.9527 16.2577 16.9211 16.3034C16.8936 16.2831 16.8593 16.2745 16.8254 16.2793C16.7916 16.284 16.761 16.3019 16.7402 16.329ZM17.0257 15.8351C16.9972 15.9015 17.029 15.977 17.0939 16.007C17.0692 16.0561 17.0432 16.1045 17.0159 16.1522L15.9482 15.4558L15.4235 15.1991C15.4301 15.1842 15.4351 15.1676 15.4418 15.1519L15.9948 15.342L17.2436 15.6051C17.2303 15.6583 17.2119 15.7115 17.1955 15.762C17.1287 15.737 17.0522 15.7694 17.0257 15.8351Z" fill="#21296F"/>
</svg>
