<svg width="30" height="30" viewBox="0 0 30 30" fill="none" xmlns="http://www.w3.org/2000/svg">
<path d="M0.9375 22.6172V7.38281L2.69531 4.45312H11.4844L15 5.03906L18.5156 4.45312H27.3047L29.0625 7.38281V22.6172L27.3047 25.5469H18.5156L15 24.9609L11.4844 25.5469H2.69531L0.9375 22.6172Z" fill="#0053B5"/>
<path d="M0.9375 11.4844H29.0625V18.5156H0.9375V11.4844Z" fill="white"/>
<path d="M0.9375 12.6562H29.0625V17.3438H0.9375V12.6562Z" fill="#D80027"/>
<path d="M11.4844 4.45312H18.5156V25.5469H11.4844V4.45312Z" fill="white"/>
<path d="M12.6562 4.45312H17.3438V25.5469H12.6562V4.45312Z" fill="#D80027"/>
<path d="M29.0625 4.45312H27.3047L18.5156 10.3125V12.0703L23.2031 11.4844L29.0625 7.38281V4.45312Z" fill="white"/>
<path d="M29.0625 4.45312L18.5156 11.4844H21.4453L29.0625 6.21094V4.45312Z" fill="#D80027"/>
<path d="M0.9375 4.45312H2.69531L11.4844 10.3125V12.0703L6.79688 11.4844L0.9375 7.38281V4.45312Z" fill="white"/>
<path d="M0.9375 4.45312L11.4844 11.4844H8.55469L0.9375 6.21094V4.45312Z" fill="#D80027"/>
<path d="M0.9375 25.5469H2.69531L11.4844 19.6875V17.9297L6.79688 18.5156L0.9375 22.6172V25.5469Z" fill="white"/>
<path d="M0.9375 25.5469L11.4844 18.5156H8.55469L0.9375 23.7891V25.5469Z" fill="#D80027"/>
<path d="M29.0625 25.5469H27.3047L18.5156 19.6875V17.9297L23.2031 18.5156L29.0625 22.6172V25.5469Z" fill="white"/>
<path d="M29.0625 25.5469L18.5156 18.5156H21.4453L29.0625 23.7891V25.5469Z" fill="#D80027"/>
</svg>
