<svg width="35" height="35" viewBox="0 0 35 35" fill="none" xmlns="http://www.w3.org/2000/svg">
<rect opacity="0.25" x="0.5" y="0.5" width="34" height="34" rx="17" stroke="white"/>
<path fill-rule="evenodd" clip-rule="evenodd" d="M14.3593 23.3333H11.667V15.2563H14.3593V23.3333Z" fill="white"/>
<path fill-rule="evenodd" clip-rule="evenodd" d="M13.0051 13.4614H12.9898C12.1864 13.4614 11.667 12.8628 11.667 12.1147C11.667 11.3509 12.2022 10.769 13.0209 10.769C13.8396 10.769 14.3438 11.3509 14.3593 12.1147C14.3593 12.8628 13.8396 13.4614 13.0051 13.4614Z" fill="white"/>
<path fill-rule="evenodd" clip-rule="evenodd" d="M24.2311 23.3331H21.5855V19.1112C21.5855 18.0507 21.2027 17.3271 20.2449 17.3271C19.514 17.3271 19.0786 17.8149 18.8874 18.2861C18.8175 18.4549 18.8003 18.6902 18.8003 18.9261V23.3333H16.1543C16.1543 23.3333 16.1892 16.1824 16.1543 15.4419H18.8003V16.5596C19.1514 16.0223 19.7803 15.2563 21.185 15.2563C22.926 15.2563 24.2312 16.3845 24.2312 18.8084L24.2311 23.3331Z" fill="white"/>
</svg>
