<svg width="115" height="73" viewBox="0 0 115 73" fill="none" xmlns="http://www.w3.org/2000/svg">
<path d="M67.7441 1.41553C68.1279 1.41556 68.6539 1.52444 69.2637 1.88525L112.989 35.0933C114.119 36.0007 114.118 37.8291 112.989 38.7368L69.2441 71.9614C68.4531 72.5547 67.6729 72.4586 67.1875 72.2739L66.998 72.1909C66.5254 71.9545 66.2661 71.6802 66.1143 71.3765C65.9562 71.0603 65.8906 70.6643 65.8906 70.146V53.5308C65.8906 52.6759 65.4673 51.8633 64.8779 51.2739C64.2886 50.6846 63.4759 50.2613 62.6211 50.2612H6.12891C5.59921 50.2612 5.02718 49.9915 4.57812 49.5425C4.12927 49.0935 3.85945 48.5222 3.85938 47.9927V25.8384C3.8595 24.6969 4.77553 23.5698 6.12891 23.5698H62.6211C63.4759 23.5698 64.2886 23.1465 64.8779 22.5571C65.4673 21.9678 65.8906 21.1552 65.8906 20.3003V3.68506C65.8906 2.7715 66.3365 2.0859 67.0518 1.60889L67.0938 1.58057L67.1279 1.54639C67.1218 1.55257 67.1614 1.51653 67.2803 1.479C67.3918 1.44379 67.5484 1.41553 67.7441 1.41553Z" stroke="white"/>
<path d="M64.4458 0.539295L107.05 32.897C108.398 33.9756 108.398 36.1328 107.05 37.2114L64.4458 69.5691C63.3672 70.3781 62.2886 70.1084 61.7493 69.8388C60.6707 69.2995 60.4011 68.4905 60.4011 67.412V51.2331C60.4011 49.8848 59.0529 48.5366 57.7046 48.5366H2.69648C1.34824 48.5366 0 47.1884 0 45.8401V24.2683C0 22.9201 1.07859 21.5718 2.69648 21.5718H57.7046C59.0529 21.5718 60.4011 20.2236 60.4011 18.8753V2.69648C60.4011 1.61789 60.9404 0.808944 61.7493 0.269649C62.019 7.83523e-07 63.0976 -0.269649 64.4458 0.539295Z" fill="#E85707"/>
</svg>
